<svg width="559" height="548" viewBox="0 0 559 548" fill="none" xmlns="http://www.w3.org/2000/svg">
<path d="M262.347 1.20272C242.543 3.74593 223.218 5.37961 203.802 10.6486C146.629 26.1639 95.1964 60.0499 58.6462 105.677C-10.8405 192.42 -19.1503 315.666 36.7704 411.069C55.4988 443.02 81.1524 471.136 111.246 493.211C141.969 515.748 177.138 531.535 214.396 540.386C245.407 547.753 279.113 549.984 310.855 546.156C344.331 542.125 377.28 532.977 407.314 517.815C491.346 475.394 548.773 392.377 557.762 300.364C567.514 200.535 519.063 100.412 432.962 45.3317C406.439 28.3645 377.248 16.1841 346.539 8.67506C320.295 2.25786 289.394 -2.27085 262.347 1.20272Z" fill="black"/>
<path d="M280 526C420.284 526 534 412.278 534 272C534 131.716 420.284 18 280 18C139.722 18 26 131.716 26 272C26 412.278 139.722 526 280 526ZM390.071 184.141C390.071 180.63 392.916 177.791 396.421 177.791H400.155C414.245 177.791 425.701 189.253 425.701 203.337V340.459C425.701 354.556 414.239 366.012 400.155 366.012H396.421C392.916 366.012 390.071 363.18 390.071 359.662V184.141V184.141ZM252.943 145.781H324.158C338.255 145.781 349.71 157.249 349.71 171.333C349.71 174.845 346.865 177.683 343.36 177.683C339.849 177.683 337.01 174.845 337.01 171.333C337.01 164.247 331.244 158.481 324.158 158.481H252.943C245.856 158.481 240.09 164.247 240.09 171.333C240.09 174.845 237.245 177.683 233.74 177.683C230.235 177.683 227.39 174.845 227.39 171.333C227.39 157.249 238.852 145.781 252.943 145.781ZM200.555 184.141C200.555 180.63 203.4 177.791 206.905 177.791H368.125C371.63 177.791 374.475 180.63 374.475 184.141V359.674C374.475 363.186 371.63 366.024 368.125 366.024H206.905C203.4 366.024 200.555 363.186 200.555 359.674V184.141ZM148.987 203.344C148.987 189.253 160.449 177.798 174.539 177.798H178.61C182.115 177.798 184.96 180.636 184.96 184.148V359.681C184.96 363.199 182.115 366.031 178.61 366.031H174.539C160.449 366.031 148.987 354.563 148.987 340.478V203.344V203.344Z" fill="#DB324A"/>
<path d="M390.69 185.188C390.69 181.6 393.589 178.701 397.161 178.701H400.966C415.326 178.701 427 190.41 427 204.798V344.877C427 359.278 415.319 370.981 400.966 370.981H397.161C393.589 370.981 390.69 368.087 390.69 364.494V185.188ZM250.942 146H323.517C337.884 146 349.558 157.715 349.558 172.104C349.558 175.691 346.659 178.59 343.087 178.59C339.508 178.59 336.615 175.691 336.615 172.104C336.615 164.864 330.739 158.974 323.517 158.974H250.942C243.72 158.974 237.844 164.864 237.844 172.104C237.844 175.691 234.945 178.59 231.372 178.59C227.8 178.59 224.901 175.691 224.901 172.104C224.901 157.715 236.582 146 250.942 146ZM197.553 185.188C197.553 181.6 200.453 178.701 204.025 178.701H368.325C371.897 178.701 374.796 181.6 374.796 185.188V364.507C374.796 368.094 371.897 370.994 368.325 370.994H204.025C200.453 370.994 197.553 368.094 197.553 364.507V185.188ZM145 204.804C145 190.41 156.681 178.707 171.041 178.707H175.189C178.761 178.707 181.66 181.607 181.66 185.194V364.513C181.66 368.107 178.761 371 175.189 371H171.041C156.681 371 145 359.285 145 344.896V204.804Z" fill="white"/>
</svg>
