<svg width="511" height="461" viewBox="0 0 511 461" fill="none" xmlns="http://www.w3.org/2000/svg">
<g clip-path="url(#clip0)">
<path d="M432.461 452.322H78.5439C54.2658 452.329 31.7155 439.755 18.9544 419.097C6.19328 398.438 5.04666 372.647 15.924 350.935L192.797 48.0538C202.477 28.2726 221.034 14.3064 242.722 10.4804C246.938 9.70037 251.216 9.30257 255.503 9.28697C282.109 9.12316 306.465 24.1814 318.208 48.0538L495.081 350.935C505.959 372.647 504.812 398.438 492.051 419.097C479.294 439.755 456.743 452.329 432.461 452.322Z" fill="#DB324A" fill-opacity="0.8"/>
<path d="M406.9 452.322H78.5439C54.2658 452.329 31.7155 439.755 18.9544 419.097C6.19328 398.438 5.04666 372.647 15.924 350.935L192.797 48.054C202.477 28.2727 221.034 14.3065 242.722 10.4805C264.414 14.3065 282.971 28.2727 292.651 48.054L469.524 350.935C480.397 372.647 479.251 398.438 466.494 419.097C453.733 439.755 431.182 452.329 406.9 452.322Z" fill="#DB324A"/>
<path d="M289.582 375.642C289.586 384.682 285.998 393.352 279.605 399.744C273.213 406.137 264.543 409.725 255.503 409.725C251.115 409.756 246.763 408.886 242.722 407.166C229.856 401.991 221.424 389.514 221.424 375.642C221.424 361.773 229.856 349.297 242.722 344.121C246.763 342.401 251.115 341.532 255.503 341.563C264.543 341.563 273.213 345.151 279.605 351.543C285.998 357.935 289.586 366.605 289.582 375.642Z" fill="#97A1A6"/>
<path d="M289.582 111.528V273.405C289.586 282.445 285.998 291.115 279.605 297.507C273.213 303.896 264.543 307.488 255.503 307.484C251.115 307.519 246.763 306.649 242.722 304.929C229.84 299.773 221.4 287.281 221.424 273.405V111.528C221.4 97.6512 229.84 85.1593 242.722 80.0033C246.763 78.2834 251.115 77.4137 255.503 77.4488C264.547 77.4371 273.221 81.0213 279.613 87.4174C286.009 93.8097 289.593 102.483 289.582 111.528Z" fill="#97A1A6"/>
<path d="M264.024 375.642C264.024 358.232 254.489 344.121 242.722 344.121C230.959 344.121 221.424 358.232 221.424 375.642C221.424 393.052 230.959 407.166 242.722 407.166C254.489 407.166 264.024 393.052 264.024 375.642Z" fill="white"/>
<path d="M264.024 111.528V273.405C264.048 287.281 255.608 299.773 242.722 304.929C229.84 299.773 221.4 287.281 221.424 273.405V111.528C221.4 97.6513 229.84 85.1593 242.722 80.0034C246.95 81.7077 250.799 84.2272 254.056 87.4175C260.425 93.8253 264.009 102.491 264.024 111.528Z" fill="white"/>
<path d="M432.419 460.843H78.5868C51.3485 460.839 26.0565 446.737 11.7353 423.566C-2.58193 400.396 -3.88456 371.465 8.29932 347.101L185.477 43.7246C198.924 17.282 226.12 0.663707 255.787 0.76511C285.455 0.870412 312.534 17.672 325.798 44.2082L502.449 346.621C514.851 370.981 513.7 400.037 499.414 423.34C485.125 446.643 459.754 460.847 432.419 460.843ZM255.503 17.8085C232.114 17.5394 210.671 30.7919 200.453 51.829L23.2718 355.209C13.9506 374.292 15.1206 396.827 26.3685 414.842C37.6163 432.852 57.3508 443.8 78.5868 443.804H432.419C453.752 443.804 473.565 432.759 484.777 414.612C495.994 396.464 497.012 373.805 487.468 354.726L310.822 52.3126C300.646 31.0454 279.079 17.594 255.503 17.8085Z" fill="black"/>
<path d="M255.503 418.243C231.977 418.243 212.906 399.171 212.906 375.642C212.906 352.116 231.977 333.045 255.503 333.045C279.032 333.045 298.103 352.116 298.103 375.642C298.076 399.159 279.02 418.215 255.503 418.243ZM255.503 350.085C241.388 350.085 229.945 361.527 229.945 375.642C229.945 389.76 241.388 401.203 255.503 401.203C269.621 401.203 281.064 389.76 281.064 375.642C281.048 361.535 269.613 350.1 255.503 350.085Z" fill="black"/>
<path d="M255.503 316.006C231.989 315.978 212.933 296.922 212.906 273.405V111.528C212.906 87.9986 231.977 68.9272 255.503 68.9272C279.032 68.9272 298.103 87.9986 298.103 111.528V273.405C298.076 296.922 279.02 315.978 255.503 316.006ZM255.503 85.9667C241.392 85.9823 229.961 97.4173 229.945 111.528V273.405C229.945 287.519 241.388 298.966 255.503 298.966C269.621 298.966 281.064 287.519 281.064 273.405V111.528C281.048 97.4173 269.613 85.9823 255.503 85.9667Z" fill="black"/>
</g>
<defs>
<clipPath id="clip0">
<rect width="511" height="461" fill="white"/>
</clipPath>
</defs>
</svg>
