<svg width="435" height="435" viewBox="0 0 435 435" fill="none" xmlns="http://www.w3.org/2000/svg">
<path d="M217.5 435C337.622 435 435 337.622 435 217.5C435 97.3781 337.622 0 217.5 0C97.3781 0 0 97.3781 0 217.5C0 337.622 97.3781 435 217.5 435Z" fill="black"/>
<path d="M217.8 421.6C330.908 421.6 422.6 329.908 422.6 216.8C422.6 103.692 330.908 12 217.8 12C104.692 12 13 103.692 13 216.8C13 329.908 104.692 421.6 217.8 421.6Z" fill="#DB324A"/>
<path opacity="0.1" d="M415.254 271.146L301.295 157.188C301.221 157.113 301.146 157.038 301.071 156.964L301.07 156.963C296.664 152.604 290.615 149.905 283.933 149.905C270.451 149.905 259.528 160.87 259.528 174.353C259.528 174.989 259.575 175.613 259.623 176.237L276.097 198.118L238.791 160.812C238.665 160.684 238.538 160.557 238.41 160.43L238.2 160.219L238.195 160.234C232.368 154.613 224.449 151.141 215.711 151.141C201.091 151.141 188.722 160.868 184.733 174.22L170.188 159.675C169.372 158.725 168.487 157.839 167.537 157.024L167.474 156.961L167.472 156.965C163.214 153.339 157.702 151.14 151.668 151.14C138.186 151.14 127.263 162.063 127.263 175.545C127.263 181.957 129.753 187.772 133.795 192.127L133.786 192.134L133.956 192.304C134.266 192.631 134.583 192.949 134.911 193.259L142.471 200.819C118.584 205.154 100.469 226.003 100.469 251.108L265.35 415.989C337.969 398.718 395.573 342.804 415.254 271.146Z" fill="black"/>
<path d="M151.66 199.95C165.141 199.95 176.07 189.021 176.07 175.54C176.07 162.059 165.141 151.13 151.66 151.13C138.179 151.13 127.25 162.059 127.25 175.54C127.25 189.021 138.179 199.95 151.66 199.95Z" fill="white"/>
<path d="M202.848 251.128C202.848 222.856 179.929 199.937 151.657 199.937C123.385 199.937 100.466 222.856 100.466 251.128H202.848Z" fill="white"/>
<path d="M100.467 251.128C100.467 222.856 123.386 199.937 151.658 199.937V251.128H100.467Z" fill="white"/>
<path d="M151.657 199.938C165.137 199.938 176.065 189.01 176.065 175.53C176.065 162.05 165.137 151.122 151.657 151.122V199.938V199.938Z" fill="white"/>
<path d="M283.93 198.76C297.411 198.76 308.34 187.831 308.34 174.35C308.34 160.869 297.411 149.94 283.93 149.94C270.449 149.94 259.52 160.869 259.52 174.35C259.52 187.831 270.449 198.76 283.93 198.76Z" fill="white"/>
<path d="M335.133 249.931C335.133 221.659 312.214 198.74 283.942 198.74C255.67 198.74 232.751 221.659 232.751 249.931H335.133Z" fill="white"/>
<path d="M232.752 249.931C232.752 221.659 255.671 198.74 283.943 198.74V249.931H232.752Z" fill="white"/>
<path d="M283.943 198.741C297.423 198.741 308.351 187.813 308.351 174.333C308.351 160.853 297.423 149.925 283.943 149.925V198.741Z" fill="white"/>
<path d="M215.71 215.83C233.577 215.83 248.06 201.346 248.06 183.48C248.06 165.614 233.577 151.13 215.71 151.13C197.844 151.13 183.36 165.614 183.36 183.48C183.36 201.346 197.844 215.83 215.71 215.83Z" fill="white"/>
<path d="M270.508 283.676C277.977 283.676 283.648 276.805 282.095 269.5C275.576 238.832 248.339 215.826 215.728 215.826C183.117 215.826 155.88 238.833 149.361 269.5C147.808 276.806 153.479 283.676 160.948 283.676H270.508Z" fill="white"/>
<path d="M149.361 269.499C155.88 238.831 183.117 215.825 215.728 215.825V283.675H160.948C153.479 283.676 147.808 276.805 149.361 269.499Z" fill="white"/>
<path d="M215.728 215.825C233.595 215.825 248.08 201.341 248.08 183.473C248.08 165.605 233.596 151.121 215.728 151.121V215.825Z" fill="white"/>
</svg>
