<svg width="512" height="512" viewBox="0 0 512 512" fill="none" xmlns="http://www.w3.org/2000/svg">
<path d="M256 504.5C393.221 504.5 504.461 393.243 504.461 255.999C504.461 118.756 393.221 7.49884 256 7.49884C118.778 7.49884 7.53784 118.756 7.53784 255.999C7.53784 393.243 118.778 504.5 256 504.5Z" fill="#DB324A"/>
<path d="M389.095 46.1339C434.095 91.1089 461.932 153.259 461.932 221.913C461.932 359.156 350.692 470.413 213.47 470.413C164.504 470.413 118.851 456.238 80.3756 431.778C125.334 476.711 187.422 504.5 256.001 504.5C393.222 504.5 504.462 393.242 504.462 255.999C504.461 167.731 458.441 90.219 389.095 46.1339Z" fill="#DB324A" fill-opacity="0.8"/>
<path d="M199.605 380.962H155.867C148.21 380.962 142.003 374.755 142.003 367.098V235.777C142.003 228.12 148.21 221.913 155.867 221.913H199.605C207.262 221.913 213.469 228.12 213.469 235.777V367.098C213.469 374.755 207.262 380.962 199.605 380.962Z" fill="white"/>
<path d="M199.606 354.842H155.866C148.21 354.842 142.003 348.634 142.003 340.977V367.097C142.003 374.755 148.21 380.962 155.866 380.962H199.606C207.262 380.962 213.469 374.755 213.469 367.097V340.977C213.469 348.634 207.263 354.842 199.606 354.842Z" fill="white"/>
<path d="M369.997 247.398C369.997 233.868 359.029 222.901 345.501 222.901H310.779C321.641 195.722 321.595 173.847 321.448 169.295C321.567 168.473 321.631 167.634 321.631 166.779V165.64C320.901 141.809 313.606 134.513 304.237 131.037C294.63 131.037 286.843 138.826 286.843 148.434V150.172C286.747 156.129 278.379 168.418 278.379 168.418L214.546 232.985L213.47 234.311V247.398V366.726C213.47 369.167 215.448 371.145 217.888 371.145H338.061C346.236 371.145 353.188 365.177 354.424 357.093C359.149 326.189 369.997 254.487 369.997 247.398Z" fill="white"/>
<path d="M345.501 222.901H341.007C340.777 225.055 340.434 227.878 340.002 231.222C331.776 294.846 277.613 342.484 213.47 342.483V366.727C213.47 369.168 215.448 371.147 217.888 371.147H338.063C346.237 371.147 353.187 365.185 354.423 357.103C359.148 326.202 369.997 254.489 369.997 247.4C369.996 233.868 359.029 222.901 345.501 222.901Z" fill="white"/>
<path d="M448.855 87.6754C408.552 41.5216 353.131 11.3182 292.802 2.62756C288.705 2.03766 284.901 4.88122 284.31 8.98058C283.719 13.08 286.564 16.8814 290.663 17.4723C347.444 25.652 399.612 54.0876 437.557 97.5409C475.865 141.409 496.962 197.684 496.962 256C496.962 320.375 471.898 380.896 426.385 426.415C380.873 471.934 320.363 497.002 255.999 497.002C192.738 497.002 132.97 472.669 87.7074 428.484C84.7439 425.589 79.9956 425.648 77.104 428.612C74.2105 431.575 74.2685 436.323 77.232 439.215C125.313 486.151 188.801 511.999 256 511.999C324.37 511.999 388.647 485.37 436.993 437.018C485.337 388.666 511.961 324.379 511.961 255.999C511.96 194.055 489.549 134.276 448.855 87.6754Z" fill="black"/>
<path d="M15.0366 256.001C15.0366 191.626 40.1008 131.105 85.6137 85.5858C131.126 40.0658 191.636 14.9977 255.999 14.9977C260.141 14.9977 263.498 11.6402 263.498 7.49884C263.498 3.35748 260.141 0 255.999 0C187.63 0 123.353 26.6289 75.0074 74.9814C26.6638 123.333 0.0389404 187.62 0.0389404 256.001C0.0389404 311.562 17.5362 364.411 50.6401 408.835C52.1119 410.811 54.3706 411.853 56.6592 411.853C58.217 411.853 59.7887 411.37 61.1345 410.368C64.455 407.893 65.1409 403.195 62.6663 399.873C31.5071 358.058 15.0366 308.307 15.0366 256.001Z" fill="black"/>
<path d="M199.605 214.414H155.867C144.088 214.414 134.504 223.997 134.504 235.777V367.098C134.504 378.878 144.088 388.461 155.867 388.461H199.605C207.137 388.461 213.757 384.533 217.561 378.628C217.67 378.631 217.777 378.645 217.887 378.645H338.06C350.028 378.645 360.027 370.058 361.837 358.228C363.213 349.227 365.109 336.768 367.103 323.452C367.717 319.357 364.895 315.538 360.798 314.925C356.701 314.313 352.884 317.134 352.272 321.23C350.279 334.529 348.386 346.972 347.011 355.961C346.33 360.415 342.566 363.648 338.06 363.648H220.968V237.155L283.71 173.691C284.03 173.367 284.32 173.015 284.576 172.639C286.836 169.321 294.217 157.904 294.34 150.294C294.34 150.253 294.34 150.213 294.34 150.173V148.435C294.34 143.387 298.139 139.209 303.027 138.61C307.436 140.452 313.469 144.762 314.132 165.757V166.778C314.132 167.249 314.096 167.734 314.026 168.221C313.963 168.656 313.939 169.096 313.953 169.534C314.078 173.43 314.179 194.184 303.815 220.115C302.892 222.426 303.174 225.043 304.569 227.103C305.965 229.163 308.29 230.396 310.778 230.396H345.5C354.872 230.396 362.497 238.022 362.497 247.394C362.492 248.597 361.952 255.046 357.051 288.863C356.457 292.962 359.298 296.766 363.397 297.36C367.5 297.952 371.301 295.112 371.894 291.014C377.496 252.364 377.496 248.882 377.496 247.395C377.496 229.752 363.143 215.399 345.501 215.399H321.465C328.709 193.123 329.099 175.748 328.961 169.674C329.074 168.706 329.131 167.735 329.131 166.777V165.638C329.131 165.561 329.13 165.485 329.128 165.409C328.418 142.228 321.546 129.458 306.847 124.005C306.012 123.695 305.129 123.537 304.238 123.537C290.511 123.537 279.345 134.705 279.345 148.433V150.053C279.2 152.088 276.02 158.428 272.551 163.647L215.408 221.448C211.494 217.14 205.869 214.414 199.605 214.414ZM205.97 367.098C205.97 370.608 203.116 373.463 199.605 373.463H155.867C152.357 373.463 149.502 370.608 149.502 367.098V235.777C149.502 232.267 152.357 229.412 155.867 229.412H199.605C203.115 229.412 205.97 232.267 205.97 235.777V366.726V367.098Z" fill="black"/>
</svg>
